<svg xmlns="http://www.w3.org/2000/svg" viewBox="0 0 220 120" role="img" aria-label="Bistro Paris preview">
  <rect x="0" y="0" width="220" height="120" fill="#F4EFE2"/>
  <text x="110" y="16" font-family="Playfair Display, Georgia, serif" font-size="13" font-weight="500" fill="#1B1410" text-anchor="middle">Bistro Paris</text>
  <polygon points="107,24 110,21 113,24 110,27" fill="#7A1C28"/>
  <text x="110" y="38" font-family="Playfair Display, Georgia, serif" font-size="7.5" font-weight="600" fill="#7A1C28" text-anchor="middle" letter-spacing="0.4">ENTRÉES</text>
  <line x1="44" y1="44" x2="92.39999999999999" y2="44" stroke="#7C6F60" stroke-width="0.5"/>
  <line x1="127.6" y1="44" x2="176" y2="44" stroke="#7C6F60" stroke-width="0.5"/>
  <polygon points="110,41.5 113.3,44 110,46.5 106.7,44" fill="#7A1C28"/>
  <text x="22" y="52" font-family="Georgia, 'Times New Roman', serif" font-size="7.2" fill="#1B1410" text-anchor="start">Soupe à l’oignon</text>
  <text x="198" y="52" font-family="Georgia, 'Times New Roman', serif" font-size="7.2" fill="#1B1410" text-anchor="end">12</text>
  <line x1="76.84" y1="50.5" x2="187.8" y2="50.5" stroke="#7C6F60" stroke-width="0.45" stroke-dasharray="0.5,1.6"/>
  <text x="22" y="63.2" font-family="Georgia, 'Times New Roman', serif" font-size="7.2" fill="#1B1410" text-anchor="start">Steak frites</text>
  <text x="198" y="63.2" font-family="Georgia, 'Times New Roman', serif" font-size="7.2" fill="#1B1410" text-anchor="end">32</text>
  <line x1="63.88" y1="61.7" x2="187.8" y2="61.7" stroke="#7C6F60" stroke-width="0.45" stroke-dasharray="0.5,1.6"/>
  <text x="22" y="74.4" font-family="Georgia, 'Times New Roman', serif" font-size="7.2" fill="#1B1410" text-anchor="start">Tarte du jour</text>
  <text x="198" y="74.4" font-family="Georgia, 'Times New Roman', serif" font-size="7.2" fill="#1B1410" text-anchor="end">11</text>
  <line x1="67.12" y1="72.9" x2="187.8" y2="72.9" stroke="#7C6F60" stroke-width="0.45" stroke-dasharray="0.5,1.6"/>
  <rect x="22" y="80.6" width="14" height="9" rx="3" ry="3" fill="#7A1C28"/>
  <text x="29" y="86.6" font-family="Inter, system-ui, sans-serif" font-size="6" font-weight="700" fill="#F4EFE2" text-anchor="middle">V</text>
  <text x="110" y="116" font-family="Georgia, 'Times New Roman', serif" font-size="6.5" font-weight="500" fill="#7C6F60" text-anchor="middle">Bistro Paris</text>
</svg>
