<svg xmlns="http://www.w3.org/2000/svg" viewBox="0 0 1200 630" width="1200" height="630">
  <rect width="1200" height="630" fill="#FAF7F2"/>
  <g transform="translate(72, 72)" stroke="#14161A" stroke-width="7" stroke-linecap="square" stroke-linejoin="miter" fill="none">
    <rect x="0" y="0" width="60" height="60"/>
    <line x1="30" y1="0" x2="30" y2="60"/>
    <line x1="0" y1="22" x2="60" y2="22"/>
  </g>
  <text x="1128" y="108" text-anchor="end" font-family="Inter, Arial, sans-serif" font-size="16" font-weight="700" fill="#6B6B6B" letter-spacing="4">MUNTIN DIGITAL · WRITING</text>
  <text x="600" y="220" text-anchor="middle" font-family="Fraunces, Georgia, serif" font-size="60" font-weight="500" fill="#14161A" letter-spacing="-2">What Should Be on a</text>
  <text x="600" y="310" text-anchor="middle" font-family="Fraunces, Georgia, serif" font-style="italic" font-size="76" font-weight="400" fill="#1F4E5B" letter-spacing="-2">Restaurant Website?</text>
  <text x="600" y="400" text-anchor="middle" font-family="Fraunces, Georgia, serif" font-size="48" font-weight="500" fill="#14161A" letter-spacing="-1">The 7 Pages That Matter</text>
  <!-- Seven small page icons -->
  <g transform="translate(600, 470)" fill="none" stroke="#1F4E5B" stroke-width="2">
    <rect x="-126" y="-12" width="24" height="32" rx="2"/><rect x="-84" y="-12" width="24" height="32" rx="2"/>
    <rect x="-42" y="-12" width="24" height="32" rx="2"/><rect x="0" y="-12" width="24" height="32" rx="2" fill="#1F4E5B" fill-opacity="0.1"/>
    <rect x="42" y="-12" width="24" height="32" rx="2"/><rect x="84" y="-12" width="24" height="32" rx="2"/>
    <rect x="126" y="-12" width="24" height="32" rx="2" stroke="#B8541A"/>
  </g>
  <text x="600" y="534" text-anchor="middle" font-family="Inter, Arial, sans-serif" font-size="13" font-weight="700" fill="#6B6B6B" letter-spacing="4">STRUCTURE THAT EARNS ITS KEEP</text>
  <text x="600" y="584" text-anchor="middle" font-family="Inter, Arial, sans-serif" font-size="16" font-weight="500" fill="#6B6B6B" letter-spacing="1">muntin.digital/blog</text>
</svg>
