<svg xmlns="http://www.w3.org/2000/svg" viewBox="0 0 1200 630" width="1200" height="630">
  <rect width="1200" height="630" fill="#2A50C8"/>
  
    <defs>
      <pattern id="muntinField" x="0" y="0" width="140" height="140"
               patternUnits="userSpaceOnUse">
        <g transform="translate(18, 18)"
           fill="none" stroke="#F6F7F8" stroke-width="1.5"
           stroke-linecap="square" stroke-linejoin="miter">
          <rect x="0" y="0" width="104" height="104"/>
          <line x1="52" y1="0" x2="52" y2="104"/>
          <line x1="0" y1="36" x2="104" y2="36"/>
        </g>
      </pattern>
    </defs>
    <rect width="1200" height="630"
          fill="url(#muntinField)" opacity="0.05"/>
  
  
  <defs>
    
    <radialGradient id="ghWarm" cx="86%" cy="13%" r="82%">
      <stop offset="0%"  stop-color="#FFB020"  stop-opacity="0.34"/>
      <stop offset="38%" stop-color="#FF6B5C" stop-opacity="0.16"/>
      <stop offset="100%" stop-color="#FFB020" stop-opacity="0"/>
    </radialGradient>
    <radialGradient id="ghCast" cx="4%" cy="100%" r="80%">
         <stop offset="0%"  stop-color="#16181D" stop-opacity="0.34"/>
         <stop offset="100%" stop-color="#16181D" stop-opacity="0"/>
       </radialGradient>
  </defs>
  <rect width="1200" height="630" fill="url(#ghCast)"/>
  <rect width="1200" height="630" fill="url(#ghWarm)"/>
  <rect x="0" y="0" width="12" height="252" fill="#FFB020"/>
  <rect x="0" y="252" width="12" height="378" fill="#FFB020" opacity="0.4"/>

  
    <g transform="translate(80, 78) scale(1.5)"
       fill="none" stroke="#FFB020" stroke-width="1.167"
       stroke-linecap="round" stroke-linejoin="round"
       color="#FFB020" opacity="0.85">
      <rect x="4" y="4" width="16" height="16" rx="1"/>
          <line x1="12" y1="4.5" x2="12" y2="19.5"/>
          <line x1="4.5" y1="10" x2="19.5" y2="10"/>
    </g>
  
  <text x="136" y="104"
        font-family="Inter, Arial, sans-serif" font-size="13"
        font-weight="700" letter-spacing="4" fill="#FFB020">GRATIS · TUS RECETAS NUNCA SALEN DEL NAVEGADOR</text>

  <text x="80" y="192"
        font-family="Fraunces, Georgia, serif" font-size="62"
        font-weight="500" letter-spacing="-2" fill="#F6F7F8">¿Cuánto cuesta</text>
  <text x="80" y="264"
        font-family="Fraunces, Georgia, serif" font-style="italic"
        font-size="62" font-weight="400" letter-spacing="-2"
        fill="#FFB020">de verdad</text>
  <text x="80" y="336"
        font-family="Fraunces, Georgia, serif" font-size="62"
        font-weight="500" letter-spacing="-2" fill="#F6F7F8">cada plato?</text>

  <text x="80" y="416"
        font-family="Inter, Arial, sans-serif" font-size="20"
        font-weight="400" fill="#F6F7F8" opacity="0.72"><tspan x="80" dy="0">Escribe una receta. Obtén el costo real tras la merma, más tres precios sugeridos.</tspan></text>

  
    <g transform="translate(770, 130) scale(11.25)" fill="#F6F7F8" opacity="0.16">
      <path d="M8 2 H14.5 V11.5 H2 V8 A6 6 0 0 1 8 2 Z"/>
      <path d="M17.5 2 H24 A6 6 0 0 1 30 8 V11.5 H17.5 V2 Z"/>
      <path d="M2 14.5 H14.5 V30 H8 A6 6 0 0 1 2 24 V14.5 Z"/>
      <path d="M17.5 14.5 H30 V24 A6 6 0 0 1 24 30 H17.5 V14.5 Z"/>
    </g>
  

  
    <g transform="translate(80, 552)" fill="#F6F7F8" opacity="0.6">
      <circle cx="8" cy="8" r="8" fill="none" stroke="#F6F7F8" stroke-width="1"/>
      <text x="8" y="12" text-anchor="middle"
            font-family="Fraunces, Georgia, serif" font-style="italic"
            font-size="11" font-weight="500" fill="#F6F7F8">d</text>
    </g>
  
  
    <line x1="80" y1="584" x2="1120" y2="584"
          stroke="rgba(246,247,248,0.2)" stroke-width="1"/>
    <text x="80" y="614"
          font-family="Inter, Arial, sans-serif" font-size="14"
          font-weight="600" letter-spacing="2" fill="rgba(246,247,248,0.6)">MUNTIN DIGITAL</text>
    <text x="1120" y="614" text-anchor="end"
          font-family="Inter, Arial, sans-serif" font-size="14"
          font-weight="600" letter-spacing="1" fill="rgba(246,247,248,0.6)">muntin.digital</text>
  
</svg>
